<svg height="480pt" viewBox="0 0 480 480" width="480pt" xmlns="http://www.w3.org/2000/svg"><path d="m456 104h-56v-16c0-4.417969-3.582031-8-8-8h-16v-40c-.027344-22.082031-17.917969-39.9726562-40-40h-192c-22.082031.0273438-39.972656 17.917969-40 40v40h-16c-4.417969 0-8 3.582031-8 8v16h-56c-13.253906 0-24 10.746094-24 24v304c0 13.253906 10.746094 24 24 24h16v16c0 4.417969 3.582031 8 8 8h64c4.417969 0 8-3.582031 8-8v-16h240v16c0 4.417969 3.582031 8 8 8h64c4.417969 0 8-3.582031 8-8v-16h16c13.253906 0 24-10.746094 24-24v-304c0-13.253906-10.746094-24-24-24zm-72 0h-64v-8h64zm-208 0v-16c0-4.417969-3.582031-8-8-8h-16v-24c0-4.417969 3.582031-8 8-8h160c4.417969 0 8 3.582031 8 8v24h-16c-4.417969 0-8 3.582031-8 8v16zm-56-64c0-13.253906 10.746094-24 24-24h192c13.253906 0 24 10.746094 24 24v40h-16v-24c0-13.253906-10.746094-24-24-24h-160c-13.253906 0-24 10.746094-24 24v24h-16zm-24 56h64v8h-64zm8 368h-48v-8h48zm320 0h-48v-8h48zm40-32c0 4.417969-3.582031 8-8 8h-432c-4.417969 0-8-3.582031-8-8v-304c0-4.417969 3.582031-8 8-8h432c4.417969 0 8 3.582031 8 8zm0 0"/><path d="m240 152c-4.417969 0-8 3.582031-8 8v240c0 4.417969 3.582031 8 8 8s8-3.582031 8-8v-240c0-4.417969-3.582031-8-8-8zm0 0"/><path d="m320 152c-4.417969 0-8 3.582031-8 8v240c0 4.417969 3.582031 8 8 8s8-3.582031 8-8v-240c0-4.417969-3.582031-8-8-8zm0 0"/><path d="m400 152c-4.417969 0-8 3.582031-8 8v240c0 4.417969 3.582031 8 8 8s8-3.582031 8-8v-240c0-4.417969-3.582031-8-8-8zm0 0"/><path d="m160 152c-4.417969 0-8 3.582031-8 8v240c0 4.417969 3.582031 8 8 8s8-3.582031 8-8v-240c0-4.417969-3.582031-8-8-8zm0 0"/><path d="m80 152c-4.417969 0-8 3.582031-8 8v240c0 4.417969 3.582031 8 8 8s8-3.582031 8-8v-240c0-4.417969-3.582031-8-8-8zm0 0"/></svg>