<svg height="480pt" viewBox="-32 0 480 480.00048" width="480pt" xmlns="http://www.w3.org/2000/svg"><path d="m280 336h-24v-25.472656c2.902344-1.855469 5.632812-3.75 8.191406-5.679688 31.125 9.960938 64.496094 10.539063 95.945313 1.65625l10.023437-2.800781c2.375-.660156 4.3125-2.382813 5.25-4.664063.9375-2.277343.773438-4.863281-.449218-7.007812l-15.136719-26.488281c-10.351563-18.132813-15.808594-38.652344-15.824219-59.535157v-102.007812c-.042969-39.746094-32.253906-71.957031-72-72-6.347656 0-12.667969.847656-18.792969 2.527344-28.75-32.0625-74.304687-43.0625-114.519531-27.644532-40.210938 15.417969-66.742188 54.050782-66.6875 97.117188v102.007812c-.011719 20.882813-5.460938 41.398438-15.808594 59.535157l-15.136718 26.457031c-1.082032 2.160156-1.160157 4.691406-.207032 6.914062.980469 2.289063 2.890625 4.058594 5.25 4.863282 31.800782 10.832031 66.128906 11.839844 98.511719 2.894531l7.078125-1.953125c2.585938 1.96875 5.359375 3.894531 8.3125 5.777344v25.503906h-24c-36.082031-.042969-70.699219 14.269531-96.214844 39.785156s-39.8281248 60.132813-39.785156 96.214844c0 4.417969 3.582031 8 8 8h400c4.417969 0 8-3.582031 8-8-.082031-75.074219-60.921875-135.914062-136-136zm-22.398438-46.199219c-4.289062 3.480469-8.835937 6.636719-13.601562 9.433594-10.800781 6.144531-22.59375 10.359375-34.847656 12.445313l-1.152344.207031-1.054688-.167969c-12.265624-2.085938-24.066406-6.304688-34.882812-12.453125-4.761719-2.796875-9.308594-5.949219-13.597656-9.433594-24.355469-19.710937-38.496094-49.378906-38.464844-80.710937v-33.425782c.023438-8.742187 7.097656-15.824218 15.839844-15.855468h1.816406c25.929688-.21875 51.09375-8.8125 71.734375-24.503906l38.792969-29.429688c4.273437 3.078125 11 8.132812 18.113281 14.238281 18.632813 16.054688 29.457031 30.464844 29.703125 39.296875v49.679688c.035156 31.3125-14.074219 60.960937-38.398438 80.679687zm-81.601562 29.296875c9.058594 3.925782 18.554688 6.746094 28.289062 8.398438l2.398438.390625c.871094.144531 1.757812.144531 2.625 0l2.398438-.398438c9.734374-1.644531 19.234374-4.464843 28.289062-8.390625v32.902344c0 17.671875-14.328125 32-32 32s-32-14.328125-32-32zm-116.085938-27.816406 10.167969-17.792969c11.734375-20.554687 17.910157-43.8125 17.917969-67.480469v-102.007812c-.015625-37.316406 23.503906-70.582031 58.6875-83.015625 35.183594-12.429687 74.382812-1.316406 97.808594 27.726563.054687.074218.144531.097656.199218.160156.429688.449218.90625.847656 1.425782 1.183594.320312.269531.65625.515624 1.007812.738281.558594.242187 1.144532.417969 1.742188.527343.378906.128907.765625.230469 1.160156.296876.539062.003906 1.074219-.042969 1.601562-.144532.503907-.027344 1.003907-.101562 1.496094-.222656.085938 0 .183594 0 .28125-.050781 5.964844-2.136719 12.253906-3.21875 18.589844-3.199219 30.914062.035156 55.964844 25.085938 56 56v102.007812c.007812 23.667969 6.1875 46.925782 17.921875 67.480469l10.039063 17.601563h-.144532c-25.269531 7.105468-51.949218 7.515625-77.425781 1.191406 21.582031-22.304688 33.632813-52.128906 33.609375-83.160156v-49.921875c-.390625-14.125-12.246094-31.359375-35.273438-51.199219-7.746093-6.65625-15.851562-12.882812-24.277343-18.65625-2.835938-1.894531-6.5625-1.789062-9.28125.273438l-43.464844 32.976562c-17.867187 13.59375-39.652344 21.046875-62.101563 21.246094h-1.808593c-17.539063.015625-31.761719 14.21875-31.792969 31.761718v33.519532c-.023438 30.902344 11.929688 60.609375 33.351562 82.878906-25.4375 6.472656-52.125 6.222656-77.4375-.71875zm-43.648437 172.71875c4.117187-63.074219 56.527344-112.097656 119.734375-112h24c0 26.511719 21.492188 48 48 48 26.511719 0 48-21.488281 48-48h24c63.140625.078125 115.449219 49.007812 119.738281 112zm0 0"/></svg>