<svg height="480pt" viewBox="-56 0 480 480" width="480pt" xmlns="http://www.w3.org/2000/svg"><path d="m344 40h-104v-16c0-13.253906-10.746094-24-24-24h-64c-13.253906 0-24 10.746094-24 24v16h-104c-13.253906 0-24 10.746094-24 24v392c0 13.253906 10.746094 24 24 24h320c13.253906 0 24-10.746094 24-24v-392c0-13.253906-10.746094-24-24-24zm-200-16c0-4.417969 3.582031-8 8-8h64c4.417969 0 8 3.582031 8 8v72h-80zm208 432c0 4.417969-3.582031 8-8 8h-320c-4.417969 0-8-3.582031-8-8v-392c0-4.417969 3.582031-8 8-8h104v40h-16c-4.417969 0-8 3.582031-8 8s3.582031 8 8 8h144c4.417969 0 8-3.582031 8-8s-3.582031-8-8-8h-16v-40h104c4.417969 0 8 3.582031 8 8zm0 0"/><path d="m184 280c26.507812 0 48-21.492188 48-48s-21.492188-48-48-48-48 21.492188-48 48c.027344 26.5 21.5 47.972656 48 48zm0-80c17.671875 0 32 14.328125 32 32s-14.328125 32-32 32-32-14.328125-32-32 14.328125-32 32-32zm0 0"/><path d="m184 288c-48.578125.058594-87.941406 39.421875-88 88v48c0 4.417969 3.582031 8 8 8h160c4.417969 0 8-3.582031 8-8v-48c-.058594-48.578125-39.421875-87.941406-88-88zm72 128h-144v-40c0-39.765625 32.234375-72 72-72s72 32.234375 72 72zm0 0"/></svg>